<svg xmlns="http://www.w3.org/2000/svg" viewBox="0 0 256 256" id="balance"><path d="M58 38a0 0 0 000 0 .78.78 0 00-.07-.33v0L50.55 21.94h0a3 3 0 001.73-1A3 3 0 0053 18.5 3.09 3.09 0 0049.89 16H14.11A3.09 3.09 0 0011 18.5a3 3 0 00.67 2.44 3.07 3.07 0 001.74 1L6.1 37.57a0 0 0 000 0 1 1 0 00-.08.33s0 0 0 0v1a9 9 0 0018 0V38s0 0 0 0a1 1 0 00-.08-.33 0 0 0 000 0L16.58 22H25V50H21a7 7 0 00-7 7 1 1 0 001 1H49a1 1 0 001-1 7 7 0 00-7-7H39V22h8.42L40.09 37.57v0a.78.78 0 00-.07.33 0 0 0 000 0v1a9 9 0 0018 0V38zM31 50V37a1 1 0 012 0V50zM15 23.35L21.42 37H8.58zM55.42 37H42.58L49 23.35zM36.46 14A5.93 5.93 0 0038 10a6 6 0 00-12 0 6 6 0 0010.46 4z"></path></svg>